<svg 
 xmlns="http://www.w3.org/2000/svg"
 xmlns:xlink="http://www.w3.org/1999/xlink"
 width="1977px" height="617px">
<path fill-rule="evenodd"  fill="rgb(0, 0, 0)"
 d="M854.1000,7.1000 L883.000,7.1000 L883.000,38.000 L854.1000,38.000 L854.1000,7.1000 Z"/>
<path fill-rule="evenodd"  fill="rgb(0, 0, 0)"
 d="M-0.000,-0.000 L198.000,-0.000 L198.000,617.000 L-0.000,617.000 L-0.000,-0.000 Z"/>
<path fill-rule="evenodd"  fill="rgb(0, 0, 0)"
 d="M882.1000,7.1000 L1094.000,7.1000 L1094.000,174.000 L882.1000,174.000 L882.1000,7.1000 Z"/>
<path fill-rule="evenodd"  fill="rgb(0, 0, 0)"
 d="M882.1000,443.1000 L1094.000,443.1000 L1094.000,610.000 L882.1000,610.000 L882.1000,443.1000 Z"/>
<path fill-rule="evenodd"  fill="rgb(0, 0, 0)"
 d="M197.1000,-0.000 L226.000,-0.000 L226.000,30.000 L197.1000,30.000 L197.1000,-0.000 Z"/>
<path fill-rule="evenodd"  fill="rgb(0, 0, 0)"
 d="M1750.1000,586.1000 L1779.000,586.1000 L1779.000,617.000 L1750.1000,617.000 L1750.1000,586.1000 Z"/>
<path fill-rule="evenodd"  fill="rgb(0, 0, 0)"
 d="M1093.1000,579.1000 L1122.000,579.1000 L1122.000,610.000 L1093.1000,610.000 L1093.1000,579.1000 Z"/>
<path fill-rule="evenodd"  fill="rgb(0, 0, 0)"
 d="M1778.1000,-0.000 L1977.000,-0.000 L1977.000,617.000 L1778.1000,617.000 L1778.1000,-0.000 Z"/>
<path fill-rule="evenodd"  fill="rgb(0, 0, 0)"
 d="M84.724,140.219 L225.952,1.442 L675.387,458.815 L534.160,597.592 L84.724,140.219 Z"/>
<path fill-rule="evenodd"  fill="rgb(0, 0, 0)"
 d="M993.936,149.327 L855.259,7.955 L397.047,456.675 L535.723,598.047 L993.936,149.327 Z"/>
<path fill-rule="evenodd"  fill="rgb(0, 0, 0)"
 d="M1579.936,161.327 L1441.259,19.955 L983.047,468.675 L1121.723,610.047 L1579.936,161.327 Z"/>
<path fill-rule="evenodd"  fill="rgb(0, 0, 0)"
 d="M1300.724,159.219 L1441.952,20.442 L1891.387,477.815 L1750.160,616.592 L1300.724,159.219 Z"/>
<path fill-rule="evenodd"  fill="rgb(0, 0, 0)"
 d="M896.723,373.047 L897.000,213.000 L969.1000,159.1000 L1092.1000,174.000 L896.723,373.047 Z"/>
<path fill-rule="evenodd"  fill="rgb(0, 0, 0)"
 d="M1011.1000,447.1000 L882.1000,444.000 L1078.996,244.985 L1079.000,398.000 L1011.1000,447.1000 Z"/>
</svg>