<svg 
 xmlns="http://www.w3.org/2000/svg"
 xmlns:xlink="http://www.w3.org/1999/xlink"
 width="2018px" height="2018px">
<path fill-rule="evenodd"  stroke="rgb(50, 120, 200)" stroke-width="20px" stroke-linecap="butt" stroke-linejoin="miter" fill="none"
 d="M1003.1000,20.393 C1547.231,20.393 1987.606,460.769 1987.606,1003.1000 C1987.606,1547.231 1547.231,1987.606 1003.1000,1987.606 C460.769,1987.606 20.393,1547.231 20.393,1003.1000 C20.393,460.769 460.769,20.393 1003.1000,20.393 Z"/>
<path fill-rule="evenodd"  fill="rgb(252, 162, 136)"
 d="M891.1000,816.1000 L1082.1000,814.1000 L1072.852,679.410 L1038.426,592.524 L885.967,494.164 L891.1000,816.1000 Z"/>
<path fill-rule="evenodd"  fill="rgb(235, 123, 101)"
 d="M1035.147,585.967 C1035.147,585.967 882.715,500.422 884.328,515.475 C895.780,622.361 1070.1000,674.1000 1070.1000,674.1000 L1035.147,585.967 Z"/>
<path fill-rule="evenodd"  fill="rgb(50, 120, 200)"
 d="M1056.459,249.901 C1041.416,250.836 939.966,250.586 930.229,251.541 C889.939,255.493 887.209,273.067 882.688,274.492 C878.109,275.935 877.067,292.809 871.213,292.525 C867.142,292.327 865.690,288.275 861.377,287.606 C843.376,284.815 824.754,318.128 823.672,331.869 C816.137,427.585 853.180,469.574 853.180,469.574 L913.836,451.541 L922.033,331.869 L1094.164,356.459 C1094.164,356.459 1148.980,359.272 1159.738,281.049 C1161.489,268.316 1149.859,209.748 1118.754,203.1000 C1112.724,202.886 1115.475,205.639 1115.475,205.639 C1115.475,205.639 1120.857,232.294 1112.197,231.869 C1105.911,231.560 1105.639,222.032 1105.639,222.032 C1105.639,222.032 1082.656,248.274 1056.459,249.901 Z"/>
<path fill-rule="evenodd"  fill="rgb(252, 162, 136)"
 d="M1095.803,559.738 C1095.803,559.738 1083.437,617.772 1046.623,617.115 C908.707,614.653 849.901,463.016 849.901,463.016 L1095.803,559.738 Z"/>
<path fill-rule="evenodd"  fill="rgb(252, 162, 136)"
 d="M894.164,484.328 C894.164,484.328 936.876,498.664 928.590,479.410 C876.723,358.886 849.901,463.016 849.901,463.016 L894.164,484.328 Z"/>
<path fill-rule="evenodd"  fill="rgb(252, 162, 136)"
 d="M1100.721,576.131 C1100.721,576.131 1144.570,367.573 1090.885,351.541 C1023.318,331.363 920.393,326.951 920.393,326.951 L905.639,497.443 "/>
<path fill-rule="evenodd"  fill="rgb(252, 162, 136)"
 d="M1100.721,576.131 C1100.721,576.131 1144.570,367.573 1090.885,351.541 C1023.318,331.363 920.393,326.951 920.393,326.951 L905.639,497.443 "/>
<path fill-rule="evenodd"  fill="rgb(252, 162, 136)"
 d="M1020.393,566.295 C1020.393,566.295 1007.627,610.599 1028.590,615.475 C1103.600,632.923 1102.361,561.377 1102.361,561.377 "/>
<path fill-rule="evenodd"  fill="rgb(50, 120, 200)"
 d="M917.115,318.754 L1005.639,297.442 L1135.147,336.787 C1135.147,336.787 1116.867,358.342 1097.442,356.459 C999.577,346.971 917.115,331.869 917.115,331.869 L917.115,318.754 Z"/>
<path fill-rule="evenodd"  fill="rgb(50, 120, 200)"
 d="M1334.1000,787.1000 C1317.639,772.354 1074.131,694.131 1074.131,694.131 L985.606,808.885 L882.328,692.492 L815.1000,727.1000 C815.1000,727.1000 633.551,757.307 624.1000,792.1000 L726.590,1081.016 L754.459,1233.475 L882.1000,1237.1000 L924.1000,899.1000 C930.173,850.624 969.1000,850.1000 969.1000,850.1000 L1366.1000,852.1000 C1366.1000,852.1000 1353.765,804.912 1334.1000,787.1000 Z"/>
<path fill-rule="evenodd"  fill="rgb(50, 100, 140)"
 d="M884.328,674.492 L985.1000,809.1000 L887.606,764.656 L818.754,794.164 L815.475,710.557 L884.328,674.492 Z"/>
<path fill-rule="evenodd"  fill="rgb(50, 100, 140)"
 d="M1076.131,676.131 L984.1000,809.1000 L1087.606,767.934 L1151.541,790.885 L1148.262,700.721 L1076.131,676.131 Z"/>
<path fill-rule="evenodd"  fill="rgb(252, 162, 136)"
 d="M531.869,1105.639 L517.115,1226.951 L553.180,1305.639 L874.1000,1305.1000 L885.1000,1214.1000 L690.885,1208.918 L708.918,1144.983 L531.869,1105.639 Z"/>
<path fill-rule="evenodd"  fill="rgb(252, 162, 136)"
 d="M535.147,1222.033 C539.302,1222.524 517.686,1209.615 517.115,1228.590 C514.889,1302.565 553.180,1303.1000 553.180,1303.1000 C553.180,1303.1000 530.993,1221.541 535.147,1222.033 Z"/>
<path fill-rule="evenodd"  fill="rgb(50, 100, 140)"
 d="M531.869,1103.1000 C586.475,816.632 633.508,781.049 633.508,781.049 L726.1000,1080.1000 L708.918,1144.983 C708.918,1144.983 523.787,1146.529 531.869,1103.1000 Z"/>
<path fill-rule="evenodd"  fill="rgb(50, 100, 140)"
 d="M1367.1000,850.1000 C1355.369,803.012 1335.022,787.606 1335.022,787.606 L1311.1000,852.1000 L1368.1000,852.1000 "/>
<path fill-rule="evenodd"  fill="rgb(50, 120, 200)"
 d="M1623.672,1312.197 C1623.672,1312.197 1708.660,916.879 1708.918,892.524 C1709.176,868.170 1684.328,859.738 1684.328,859.738 C1684.328,859.738 996.495,856.283 969.574,856.459 C942.652,856.635 933.508,884.328 933.508,884.328 L879.410,1310.557 "/>
<path fill-rule="evenodd"  fill="rgb(50, 100, 140)"
 d="M1438.426,1312.197 C1438.426,1312.197 1600.078,859.176 1626.1000,858.1000 C1653.922,858.824 1683.1000,858.1000 1683.1000,858.1000 C1683.1000,858.1000 1711.655,868.440 1708.101,892.535 C1704.510,916.881 1623.691,1312.197 1623.672,1312.197 L1438.426,1312.197 Z"/>
<path fill-rule="evenodd"  fill="rgb(50, 100, 140)"
 d="M1410.557,1095.803 L1320.393,1135.147 L1325.311,1110.557 L1385.967,1085.967 L1333.508,1061.377 L1336.787,1036.787 L1413.836,1076.131 L1410.557,1095.803 ZM1263.016,1151.541 L1281.049,1151.541 L1331.869,1015.475 L1315.475,1015.475 L1263.016,1151.541 ZM1261.377,1110.557 L1207.279,1085.967 L1269.574,1059.737 L1272.852,1035.147 L1184.328,1074.492 L1181.049,1095.803 L1258.098,1135.147 L1261.377,1110.557 Z"/>
<path fill-rule="evenodd"  fill="rgb(50, 120, 200)"
 d="M258.098,1330.229 C271.817,1489.728 333.508,1492.524 333.508,1492.524 L371.213,1492.524 L371.213,1330.229 C371.213,1330.229 255.004,1294.261 258.098,1330.229 Z"/>
<path fill-rule="evenodd"  fill="rgb(50, 120, 200)"
 d="M1726.900,1329.856 C1713.187,1489.722 1651.524,1492.524 1651.524,1492.524 L1613.836,1492.524 L1613.836,1329.856 C1613.836,1329.856 1729.992,1293.805 1726.900,1329.856 Z"/>
<path fill-rule="evenodd"  fill="rgb(50, 100, 140)"
 d="M156.459,1330.230 L156.459,1303.1000 L1828.590,1303.1000 L1828.590,1330.230 L156.459,1330.230 Z"/>
<path fill-rule="evenodd"  fill="rgb(50, 100, 140)"
 d="M160.557,1303.1000 C167.347,1303.1000 172.852,1309.505 172.852,1316.295 C172.852,1323.085 167.347,1328.590 160.557,1328.590 C153.767,1328.590 148.262,1323.085 148.262,1316.295 C148.262,1309.505 153.767,1303.1000 160.557,1303.1000 Z"/>
<path fill-rule="evenodd"  fill="rgb(50, 100, 140)"
 d="M155.639,1330.229 C151.565,1330.229 148.262,1326.927 148.262,1322.852 C148.262,1318.778 151.565,1315.475 155.639,1315.475 C159.713,1315.475 163.016,1318.778 163.016,1322.852 C163.016,1326.927 159.713,1330.229 155.639,1330.229 Z"/>
<path fill-rule="evenodd"  fill="rgb(50, 100, 140)"
 d="M1824.492,1303.1000 C1817.701,1303.1000 1812.197,1309.505 1812.197,1316.295 C1812.197,1323.085 1817.701,1328.590 1824.492,1328.590 C1831.282,1328.590 1836.787,1323.085 1836.787,1316.295 C1836.787,1309.505 1831.282,1303.1000 1824.492,1303.1000 Z"/>
<path fill-rule="evenodd"  fill="rgb(50, 100, 140)"
 d="M1829.410,1315.475 C1825.336,1315.475 1822.033,1318.778 1822.033,1322.852 C1822.033,1326.927 1825.336,1330.229 1829.410,1330.229 C1833.484,1330.229 1836.787,1326.927 1836.787,1322.852 C1836.787,1318.778 1833.484,1315.475 1829.410,1315.475 Z"/>
</svg>