<?xml version="1.0" encoding="utf-8"?>
<!-- Generator: Adobe Illustrator 27.4.1, SVG Export Plug-In . SVG Version: 6.00 Build 0)  -->
<svg version="1.1" id="Слой_1" xmlns="http://www.w3.org/2000/svg" xmlns:xlink="http://www.w3.org/1999/xlink" x="0px" y="0px"
	 viewBox="0 0 800 800" style="enable-background:new 0 0 800 800;" xml:space="preserve">
<style type="text/css">
	.st0{fill-rule:evenodd;clip-rule:evenodd;}
</style>
<path class="st0" d="M612,314.1c0,67.8-33.8,127.8-85.4,164c11.7,14.4,18.8,32.7,18.8,52.7c0,40.3-28.6,74-66.7,81.7
	c0,0.5,0,1.1,0,1.7c0,18.4-14.9,33.3-33.3,33.3h-66.7c-18.4,0-33.3-14.9-33.3-33.3c0-0.6,0-1.1,0-1.7c-38.1-7.7-66.7-41.3-66.7-81.7
	c0-20,7-38.3,18.8-52.7c-51.7-36.2-85.4-96.1-85.4-164c0-110.5,89.5-200,200-200C522.5,114.1,612,203.6,612,314.1z M545.4,314.1
	c0,73.6-59.7,133.3-133.3,133.3c-73.6,0-133.3-59.7-133.3-133.3c0-73.6,59.7-133.3,133.3-133.3C485.7,180.8,545.4,240.5,545.4,314.1
	z M409.2,514.1h2.8h2.8H462c9.2,0,16.7,7.5,16.7,16.7c0,9.2-7.5,16.7-16.7,16.7h-47.2h-5.7H362c-9.2,0-16.7-7.5-16.7-16.7
	c0-9.2,7.5-16.7,16.7-16.7H409.2z"/>
</svg>
