<?xml version="1.0" encoding="utf-8"?>
<!-- Generator: Adobe Illustrator 27.4.1, SVG Export Plug-In . SVG Version: 6.00 Build 0)  -->
<svg version="1.1" id="Слой_1" xmlns="http://www.w3.org/2000/svg" xmlns:xlink="http://www.w3.org/1999/xlink" x="0px" y="0px"
	 viewBox="0 0 800 800" style="enable-background:new 0 0 800 800;" xml:space="preserve">
<style type="text/css">
	.st0{fill-rule:evenodd;clip-rule:evenodd;}
</style>
<path class="st0" d="M109.8,109.8c-13,13-13,34.1,0,47.1l33.3,33.3c13,13,34.1,13,47.1,0c13-13,13-34.1,0-47.1l-33.3-33.3
	C143.9,96.7,122.8,96.7,109.8,109.8z M643.1,109.8c13-13,34.1-13,47.1,0c13,13,13,34.1,0,47.1l-33.3,33.3c-13,13-34.1,13-47.1,0
	c-13-13-13-34.1,0-47.1L643.1,109.8z M656.9,476.4l33.3,33.3c13,13,13,34.1,0,47.1c-13,13-34.1,13-47.1,0l-33.3-33.3
	c-13-13-13-34.1,0-47.1C622.8,463.4,643.9,463.4,656.9,476.4z M109.8,556.9c-13-13-13-34.1,0-47.1l33.3-33.3c13-13,34.1-13,47.1,0
	c13,13,13,34.1,0,47.1l-33.3,33.3C143.9,569.9,122.8,569.9,109.8,556.9z M680.5,366.7c18.4,0,33.3-14.9,33.3-33.3
	c0-18.4-14.9-33.3-33.3-33.3l-13.8,0c-18.4,0-33.3,14.9-33.3,33.3c0,18.4,14.9,33.3,33.3,33.3H680.5z M66.7,340.2
	c0,18.4,14.9,33.3,33.3,33.3h13.8c18.4,0,33.3-14.9,33.3-33.3c0-18.4-14.9-33.3-33.3-33.3l-13.8,0C81.6,306.9,66.7,321.8,66.7,340.2
	z M514.6,497.3c51.7-36.2,85.4-96.1,85.4-164c0-110.5-89.5-200-200-200c-110.5,0-200,89.5-200,200c0,67.8,33.8,127.8,85.4,164
	c-11.7,14.4-18.8,32.7-18.8,52.7c0,40.3,28.6,74,66.7,81.7c0,0.5,0,1.1,0,1.7c0,18.4,14.9,33.3,33.3,33.3h66.7
	c18.4,0,33.3-14.9,33.3-33.3c0-0.6,0-1.1,0-1.7c38.1-7.7,66.7-41.3,66.7-81.7C533.3,530,526.3,511.7,514.6,497.3z M400,466.7
	c73.6,0,133.3-59.7,133.3-133.3c0-73.6-59.7-133.3-133.3-133.3c-73.6,0-133.3,59.7-133.3,133.3C266.7,407,326.4,466.7,400,466.7z
	 M400,533.3h-2.8H350c-9.2,0-16.7,7.5-16.7,16.7c0,9.2,7.5,16.7,16.7,16.7h47.2h5.7H450c9.2,0,16.7-7.5,16.7-16.7
	c0-9.2-7.5-16.7-16.7-16.7h-47.2H400z"/>
</svg>
