<?xml version="1.0" encoding="utf-8"?>
<!-- Generator: Adobe Illustrator 27.4.1, SVG Export Plug-In . SVG Version: 6.00 Build 0)  -->
<svg version="1.1" id="Слой_1" xmlns="http://www.w3.org/2000/svg" xmlns:xlink="http://www.w3.org/1999/xlink" x="0px" y="0px"
	 viewBox="0 0 800 800" style="enable-background:new 0 0 800 800;" xml:space="preserve">
<path d="M677.4,110c-51.8-24-107-41.7-165.1-51.8c-7.2,12.6-15.5,29.9-21.1,43.8c-61.5-9.2-122.5-9.2-182.8,0
	c-5.9-13.9-14.3-31.2-21.5-43.8C228.9,68.3,173.7,86,121.9,110C17.6,267.5-10.6,421.2,3.3,572.3c69.5,51.8,136.4,83,202.5,103.6
	c16.4-22.4,30.7-46.4,43.3-71.1c-24-8.8-46.7-20.2-68.2-33.2c5.9-4.2,11.4-8.8,16.8-13c131.7,61.5,274.5,61.5,404.6,0
	c5.4,4.7,11,8.8,16.8,13c-21.5,13-44.6,24-68.2,33.2c12.6,24.9,26.9,48.9,43.3,71.1c66.1-20.6,133.5-51.8,202.5-103.6
	c16.4-175.6-28.2-327.5-118.7-462.3L677.4,110L677.4,110z M266.9,479.7c-39.5,0-72-36.6-72-81.7s31.6-81.7,72-81.7
	s72.4,36.6,72,81.7C338.9,442.7,307.3,479.7,266.9,479.7z M532.5,479.7c-39.5,0-72-36.6-72-81.7s31.6-81.7,72-81.7
	c40.4,0,72.4,36.6,72,81.7C604.5,442.7,573,479.7,532.5,479.7z"/>
</svg>
