<?xml version="1.0" encoding="utf-8"?>
<!-- Generator: Adobe Illustrator 27.4.1, SVG Export Plug-In . SVG Version: 6.00 Build 0)  -->
<svg version="1.1" id="Слой_1" xmlns="http://www.w3.org/2000/svg" xmlns:xlink="http://www.w3.org/1999/xlink" x="0px" y="0px"
	 viewBox="0 0 800 800" style="enable-background:new 0 0 800 800;" xml:space="preserve">
<path d="M456.2,296.8C456.2,296.8,456.2,296.8,456.2,296.8c0-41.7,33.9-75.5,75.7-75.5s75.7,33.8,75.7,75.5
	c0,41.7-33.9,75.5-75.7,75.5c0,0,0,0,0,0l0,0c0,0,0,0,0,0C490,372.3,456.2,338.5,456.2,296.8C456.2,296.8,456.2,296.8,456.2,296.8
	L456.2,296.8L456.2,296.8z M632.3,296.9c0-55.5-45.1-100.5-100.7-100.5c-55.6,0-100.7,45-100.7,100.5S476,397.5,531.6,397.5l0,0
	C587.2,397.4,632.2,352.4,632.3,296.9L632.3,296.9L632.3,296.9z M251.1,607l-49.2-20.3c14,28.8,43.1,48.2,76.6,48.2
	c35.2,0,65.4-21.4,78.3-51.8l0.2-0.6c4.1-9.7,6.6-20.9,6.6-32.7c0-46.9-38.1-84.9-85-84.9c-10.8,0-21.2,2-30.7,5.7l0.6-0.2l50.9,21
	c22.8,9.7,38.5,31.9,38.5,57.7c0,34.6-28.1,62.6-62.7,62.6c-8.7,0-16.9-1.8-24.4-4.9L251.1,607L251.1,607z M399.3,0
	C189.3,0,17.1,161.3,0.1,366.5L0,367.9l214.8,88.6c17.9-12.3,40-19.7,63.8-19.7c0,0,0.1,0,0.1,0l0,0c2.1,0,4.2,0.1,6.3,0.2
	L380.5,299v-2c0.1-83.2,67.7-150.7,151.1-150.7c83.4,0,151.1,67.5,151.1,150.8S615,448,531.6,448h-3.5l-136.1,97
	c0,1.7,0.1,3.5,0.1,5.3c0,0,0,0.1,0,0.1c0,62.5-50.7,113.1-113.3,113.1c-54.7,0-100.4-38.7-111-90.2l-0.1-0.7L13.8,509.1
	C63,678.4,216.9,800,399.3,800C620.6,800,800,620.9,800,400S620.6,0,399.3,0L399.3,0L399.3,0L399.3,0z"/>
</svg>
