<?xml version="1.0" encoding="iso-8859-1"?>
<!-- Uploaded to: SVG Repo, www.svgrepo.com, Generator: SVG Repo Mixer Tools -->
<!DOCTYPE svg PUBLIC "-//W3C//DTD SVG 1.1//EN" "http://www.w3.org/Graphics/SVG/1.1/DTD/svg11.dtd">
<svg fill="#000000" version="1.1" id="Capa_1" xmlns="http://www.w3.org/2000/svg" xmlns:xlink="http://www.w3.org/1999/xlink" 
	 width="800px" height="800px" viewBox="0 0 588.599 588.6"
	 xml:space="preserve">
<g>
	<path d="M267.439,251.205l-0.377,0.011c-1.87,7.259-3.731,16.487-5.769,23.525l-7.38,25.676l27.886,0.105l-7.977-25.956
		C271.555,267.363,269.309,258.367,267.439,251.205z"/>
	<path d="M539.573,49.204h-178.2c-0.791,0-1.561,0.076-2.342,0.124V0L11.227,46.417V540.98L359.031,588.6v-50.814
		c0.781,0.053,1.551,0.116,2.342,0.116h178.2c20.851,0,37.8-16.965,37.8-37.8V86.999C577.373,66.16,560.423,49.204,539.573,49.204z
		 M107.19,348.648l-59.444-2.342V243.11l20.946-0.933v85.018l38.499,0.907V348.648z M204.098,301.377
		c0,35.891-17.729,52.26-46.461,51.089c-26.634-1.086-41.808-16.891-41.808-51.632v-60.756l23.361-1.039v63.825
		c0,19.079,6.874,28.962,19.246,29.278c12.912,0.326,20.126-8.976,20.126-29.131v-65.726l25.537-1.134V301.377z M296.053,356.084
		l-10.049-32.016l-36.12-0.648l-8.699,30.502l-27.962-1.098l36.661-118.715l37.47-1.667l41.301,124.923L296.053,356.084z
		 M555.773,500.102c0,8.933-7.268,16.199-16.2,16.199h-178.2c-0.802,0-1.571-0.11-2.342-0.231V368.36l24.09,64.673l93.936-35.005
		l3.729-13.109l-91.23,33.992l-30.523-81.97V219.902l98.846-36.822l44.951,120.648c0.611-1.561,1.36-3.068,2.352-4.439l2.046-7.162
		c0.401-1.294,0.981-2.468,1.667-3.554l-44.561-119.62l-105.301,39.242V71.046c0.771-0.114,1.54-0.243,2.342-0.243h178.2
		c8.933,0,16.2,7.27,16.2,16.2V500.102z"/>
	<path d="M521.242,339.926l11.386-38.043c0.391-1.308,0.464-2.637,0.29-3.918l2.942-9.039c0.454-1.487-0.158-2.837-1.255-3.953
		c0.147-0.287,0.348-0.52,0.453-0.833c0.718-2.289-0.569-4.714-2.857-5.432l-3.85-1.216c-2.278-0.696-4.726,0.567-5.432,2.858
		c-0.074,0.222-0.043,0.454-0.074,0.686c-1.413,0.211-2.562,0.82-3.006,2.223l-2.668,9.397c-1.065,1.052-1.915,2.344-2.368,3.881
		l-11.401,38.045c-0.585,1.967-0.464,3.971,0.18,5.774l-15.504,54.422c-1.018,3.354-2.985,18.277,0.38,19.312
		c3.364,1.012,10.763-12.234,11.791-15.589l17.439-53.715C519.328,343.644,520.62,341.982,521.242,339.926z"/>
	<path d="M529.685,352.229c-0.896,2.99-2.437,5.658-4.515,7.905l-0.152,0.464l1.688,4.514l-3.586,1.34l-4.335,13.331l22.043-8.216
		l-9.387-25.186L529.685,352.229z"/>
	<path d="M440.364,319.465c-2.036-0.664-3.428-2.441-3.565-4.557l-0.363-5.579c-0.148-2.099,0.991-4.05,2.9-4.968
		c0.675-0.326,1.191-0.896,1.413-1.561s0.158-1.424-0.158-2.046c-0.971-1.878-0.686-4.182,0.686-5.764l3.681-4.208
		c0.928-1.041,2.173-1.655,3.502-1.748l0.938-0.065l1.075,0.34c0.844,0.309,1.54,0.232,2.142-0.076
		c0.644-0.316,1.149-0.907,1.36-1.572c0.611-1.917,2.246-3.238,4.208-3.499l-0.248-3.671c-0.031-0.379-0.306-0.73-0.675-0.854
		c-3.992-1.252-7.335-4.126-9.181-7.868c-1.861-3.752-2.115-8.164-0.696-12.095c0.132-0.359,0.031-0.783-0.259-1.034l-8.886-7.768
		c-0.495-0.433-0.807-0.256-1.07-0.126c-3.676,1.93-8.1,2.281-12.061,0.931c-3.965-1.329-7.251-4.285-9.044-8.068
		c-0.152-0.346-0.532-0.567-0.928-0.541l-11.755,0.789c-0.385,0.01-0.728,0.288-0.849,0.643c-1.25,3.995-4.129,7.349-7.868,9.194
		c-3.729,1.87-8.179,2.112-12.107,0.675c-0.243-0.073-0.596-0.197-1.028,0.288l-7.773,8.872c-0.253,0.298-0.306,0.728-0.116,1.076
		c1.931,3.702,2.268,8.1,0.929,12.062c-1.34,3.963-4.271,7.246-8.063,9.028c-0.358,0.166-0.564,0.53-0.554,0.928l0.791,11.773
		c0.021,0.385,0.285,0.717,0.654,0.839c3.997,1.255,7.341,4.129,9.207,7.867c1.846,3.744,2.089,8.18,0.665,12.108
		c-0.127,0.358-0.021,0.785,0.273,1.033l8.881,7.773c0.485,0.422,0.812,0.253,1.065,0.11c1.888-0.98,3.955-1.561,6.096-1.703
		c2.046-0.137,4.05,0.11,5.98,0.785c3.966,1.34,7.245,4.271,9.028,8.059c0.168,0.343,0.537,0.564,0.928,0.537l11.76-0.78
		c0.4-0.026,0.728-0.29,0.844-0.653c1.266-3.998,4.124-7.341,7.879-9.197c3.659-1.804,7.92-2.078,11.76-0.785
		c0.021-0.502,0.115-1.008,0.284-1.487c0.253-0.696,0.211-1.456-0.105-2.099C441.634,320.188,441.049,319.676,440.364,319.465z
		 M413.848,312.319c-12.613,0.828-23.556-8.743-24.395-21.357c-0.854-12.614,8.717-23.572,21.342-24.413
		c12.63-0.844,23.572,8.754,24.416,21.368C436.055,300.533,426.478,311.476,413.848,312.319z"/>
	<path d="M482.888,304.826c-1.893-0.597-3.475-1.957-4.351-3.729c-0.881-1.783-1.002-3.86-0.327-5.729
		c0.063-0.167,0.011-0.367-0.126-0.499l-4.192-3.681c-0.243-0.2-0.396-0.113-0.517-0.065c-1.73,0.917-3.855,1.086-5.722,0.453
		c-1.878-0.641-3.438-2.035-4.282-3.828c-0.074-0.167-0.253-0.274-0.433-0.264l-5.579,0.377c-0.174,0.021-0.343,0.137-0.385,0.309
		c-0.602,1.89-1.962,3.488-3.729,4.369c-1.772,0.88-3.876,0.994-5.732,0.319c-0.121-0.045-0.301-0.108-0.501,0.124l-3.691,4.198
		c-0.116,0.142-0.147,0.353-0.063,0.517c0.929,1.761,1.076,3.839,0.454,5.716c-0.644,1.878-2.025,3.438-3.818,4.282
		c-0.169,0.074-0.285,0.253-0.274,0.443l0.38,5.568c0.011,0.19,0.132,0.349,0.316,0.401c1.888,0.601,3.48,1.961,4.346,3.733
		c0.886,1.767,1.012,3.86,0.337,5.727c-0.063,0.18-0.011,0.369,0.116,0.496l4.219,3.681c0.232,0.2,0.38,0.116,0.496,0.053
		c0.896-0.464,1.877-0.738,2.9-0.807c0.959-0.063,1.908,0.079,2.815,0.374c1.878,0.622,3.449,2.025,4.282,3.818
		c0.074,0.169,0.264,0.269,0.443,0.258l5.568-0.369c0.174-0.011,0.343-0.132,0.396-0.306c0.596-1.903,1.946-3.485,3.729-4.361
		c1.771-0.886,3.876-0.991,5.742-0.326c0.111,0.042,0.29,0.095,0.491-0.116l3.681-4.214c0.11-0.137,0.137-0.343,0.063-0.512
		c-0.918-1.75-1.087-3.839-0.443-5.716c0.633-1.888,2.015-3.438,3.818-4.282c0.168-0.084,0.273-0.253,0.264-0.433l-0.369-5.579
		C483.2,305.047,483.073,304.884,482.888,304.826z M462.328,320.319c-5.97,0.396-11.159-4.15-11.56-10.125
		c-0.391-5.97,4.134-11.169,10.125-11.575c5.964-0.38,11.153,4.16,11.56,10.135C472.853,314.729,468.318,319.908,462.328,320.319z"
		/>
</g>
</svg>