<?xml version="1.0" encoding="utf-8"?>
<!-- Generator: Adobe Illustrator 27.4.1, SVG Export Plug-In . SVG Version: 6.00 Build 0)  -->
<svg version="1.1" id="Layer_1" xmlns="http://www.w3.org/2000/svg" xmlns:xlink="http://www.w3.org/1999/xlink" x="0px" y="0px"
	 viewBox="0 0 800 800" style="enable-background:new 0 0 800 800;" xml:space="preserve">
<path d="M775.1,187.1c-10.1-3.5-20.8-5.1-31.5-4.5H333.5c-15.8,0-36.1-2.3-51.8,2.3c-19.9,4.5-34,22.4-33.8,42.8
	c0,24.9,20.2,45.1,45.1,45.1h407.8L664.7,462c-4.7,21.1-23.4,36.1-45.1,36.1h-338c-21.4-0.6-39.7-15.3-45.1-36.1l-72.1-333.5
	c-9-41.5-45.4-71.4-87.9-72.1H45.1C20.2,56.4,0,76.6,0,101.4s20.2,45.1,45.1,45.1h31.5L148.7,480c13.5,63.1,67.6,105.9,132.9,105.9
	h338c54.1,0,110.4-36.1,126.2-87.9c11.3-36.1,18-76.6,24.8-112.7c6.8-38.3,15.8-76.6,22.5-112.7c2.6-7.3,4.1-14.8,4.5-22.5
	c1.9-7.4,2.6-15,2.3-22.5C799.9,209.6,790.9,191.6,775.1,187.1z M180.3,676c0,37.3,30.3,67.6,67.6,67.6s67.6-30.3,67.6-67.6l0,0
	c0-37.3-30.3-67.6-67.6-67.6S180.3,638.7,180.3,676z M585.8,676c0,37.3,30.3,67.6,67.6,67.6S721,713.4,721,676s-30.3-67.6-67.6-67.6
	l0,0C616.1,608.4,585.8,638.7,585.8,676L585.8,676z"/>
</svg>
